<?xml version="1.0" encoding="utf-8"?>
<svg version="1.1" xmlns:xlink="http://www.w3.org/1999/xlink" width="756px" height="183px" xmlns="http://www.w3.org/2000/svg">
  <g transform="matrix(1 0 0 1 -380 -1179 )">
    <path d="M 754.426291793313 181.494444444445  L 1.37689969604864 181.494444444445  C 1.37689969604864 181.494444444445  0.229483282674778 90.797777777778  0.229483282674778 91.2022222222222  C 11.3825190567329 90.8200469536512  41.7167784154556 88.9777777777779  65.0202634245187 88.9777777777779  C 104.988601823708 88.9777777777779  101.737588652482 117.288888888889  134.630192502533 117.288888888889  C 167.522796352584 117.288888888889  155.506606098007 64.9189488493757  205.770010131712 65.385185185185  C 242.104863221885 65.7222222222222  247.396913872979 83.3981343233365  269.260385005066 83.5851851851851  C 308.655015197568 83.9222222222222  305.212765957447 0.33703703703668  344.224924012158 0.674074074073815  C 383.23708206687 1.01111111111118  362.996722774717 87.565963637684  407.715298885512 93.0222222222221  C 432.575987841945 96.0555555555557  442.711499493415 92.5166666666667  475.795339412361 95.0444444444445  C 508.879179331307 97.5722222222223  508.30547112462 148.633333333333  546.93515704154 148.97037037037  C 585.56484295846 149.307407407407  577.276744132171 130.62633282827  615.780141843972 130.77037037037  C 657.385720506949 130.926012875822  659.381965552178 150.318518518518  689.979736575481 150.992592592592  C 715.632583187148 151.557729144989  736.182370820669 116.277777777778  752.705167173252 117.288888888889  C 753.164133738602 117.895555555555  754.426291793313 181.494444444445  754.426291793313 181.494444444445  Z " fill-rule="nonzero" fill="#2db6f4" stroke="none" transform="matrix(1 0 0 1 380 1179 )" />
  </g>
</svg>