<?xml version="1.0" encoding="utf-8"?>
<svg version="1.1" xmlns:xlink="http://www.w3.org/1999/xlink" width="755px" height="155px" xmlns="http://www.w3.org/2000/svg">
  <g transform="matrix(1 0 0 1 -379 -1179 )">
    <path d="M 0 90.5244444444443  C 0 90.5244444444443  25.0284552845528 89.1733333333334  64.9593495934959 89.1733333333334  C 104.890243902439 89.1733333333334  101.642276422764 117.546666666667  134.50406504065 117.546666666667  C 167.365853658537 117.546666666667  155.360920697366 65.0616278578359  205.577235772358 65.5288888888888  C 241.878048780488 65.8666666666668  247.165141606712 83.5814269262451  269.008130081301 83.7688888888888  C 308.365853658537 84.1066666666666  304.926829268293 0.337777777777546  343.90243902439 0.67555555555532  C 382.878048780488 1.01333333333332  362.65665154356 87.7584163050196  407.333333333333 93.2266666666667  C 432.170731707317 96.2666666666667  442.29674796748 92.72  475.349593495935 95.2533333333333  C 508.40243902439 97.7866666666666  507.829268292683 148.96  546.422764227642 149.297777777778  C 585.016260162602 149.635555555555  576.735925990358 130.913423669651  615.20325203252 131.057777777778  C 656.769852766852 131.213762354671  658.764227642276 150.648888888889  689.333333333333 151.324444444444  C 719.90243902439 152  732.382718537929 114.012561983471  751.235772357723 115.52  " stroke-width="2" stroke="#2db7f5" fill="none" transform="matrix(1 0 0 1 380 1180 )" />
  </g>
</svg>