<?xml version="1.0" encoding="utf-8"?>
<svg version="1.1" xmlns:xlink="http://www.w3.org/1999/xlink" width="107px" height="76px" xmlns="http://www.w3.org/2000/svg">
  <defs>
    <mask fill="white" id="clip14">
      <path d="M 0 71.9285714285713  L 0 4.07142857142867  C 0 1.79142857142847  2.0770588235294 0  4.72058823529414 0  L 102.279411764706 0  C 104.922941176471 0  107 1.79142857142847  107 4.07142857142867  L 107 71.9285714285713  C 107 74.2085714285715  104.922941176471 76  102.279411764706 76  L 4.72058823529414 76  C 2.0770588235294 76  0 74.2085714285715  0 71.9285714285713  Z " fill-rule="evenodd" />
    </mask>
  </defs>
  <g transform="matrix(1 0 0 1 -801 -1174 )">
    <path d="M 0 71.9285714285713  L 0 4.07142857142867  C 0 1.79142857142847  2.0770588235294 0  4.72058823529414 0  L 102.279411764706 0  C 104.922941176471 0  107 1.79142857142847  107 4.07142857142867  L 107 71.9285714285713  C 107 74.2085714285715  104.922941176471 76  102.279411764706 76  L 4.72058823529414 76  C 2.0770588235294 76  0 74.2085714285715  0 71.9285714285713  Z " fill-rule="nonzero" fill="#000000" stroke="none" transform="matrix(1 0 0 1 801 1174 )" />
    <path d="M 0 71.9285714285713  L 0 4.07142857142867  C 0 1.79142857142847  2.0770588235294 0  4.72058823529414 0  L 102.279411764706 0  C 104.922941176471 0  107 1.79142857142847  107 4.07142857142867  L 107 71.9285714285713  C 107 74.2085714285715  104.922941176471 76  102.279411764706 76  L 4.72058823529414 76  C 2.0770588235294 76  0 74.2085714285715  0 71.9285714285713  Z " stroke-width="2" stroke="#ebebeb" fill="none" transform="matrix(1 0 0 1 801 1174 )" mask="url(#clip14)" />
  </g>
</svg>