<?xml version="1.0" encoding="utf-8"?>
<svg version="1.1" xmlns:xlink="http://www.w3.org/1999/xlink" width="16px" height="16px" xmlns="http://www.w3.org/2000/svg">
  <g transform="matrix(1 0 0 1 -402 -337 )">
    <path d="M 410 337  C 414.48 337  418 340.52  418 345  C 418 349.48  414.48 353  410 353  C 405.52 353  402 349.48  402 345  C 402 340.52  405.52 337  410 337  Z " fill-rule="nonzero" fill="#ffffff" stroke="none" />
    <path d="M 410 337.5  C 414.2 337.5  417.5 340.8  417.5 345  C 417.5 349.2  414.2 352.5  410 352.5  C 405.8 352.5  402.5 349.2  402.5 345  C 402.5 340.8  405.8 337.5  410 337.5  Z " stroke-width="1" stroke="#d9001b" fill="none" />
  </g>
</svg>