<?xml version="1.0" encoding="utf-8"?>
<svg version="1.1" xmlns:xlink="http://www.w3.org/1999/xlink" width="16px" height="16px" xmlns="http://www.w3.org/2000/svg">
  <g transform="matrix(1 0 0 1 -758 -339 )">
    <path d="M 766 339  C 770.48 339  774 342.52  774 347  C 774 351.48  770.48 355  766 355  C 761.52 355  758 351.48  758 347  C 758 342.52  761.52 339  766 339  Z " fill-rule="nonzero" fill="#ffffff" stroke="none" />
    <path d="M 766 339.5  C 770.2 339.5  773.5 342.8  773.5 347  C 773.5 351.2  770.2 354.5  766 354.5  C 761.8 354.5  758.5 351.2  758.5 347  C 758.5 342.8  761.8 339.5  766 339.5  Z " stroke-width="1" stroke="#95f204" fill="none" />
  </g>
</svg>