<?xml version="1.0" encoding="utf-8"?>
<svg version="1.1" xmlns:xlink="http://www.w3.org/1999/xlink" width="16px" height="16px" xmlns="http://www.w3.org/2000/svg">
  <g transform="matrix(1 0 0 1 -876 -339 )">
    <path d="M 884 339  C 888.48 339  892 342.52  892 347  C 892 351.48  888.48 355  884 355  C 879.52 355  876 351.48  876 347  C 876 342.52  879.52 339  884 339  Z " fill-rule="nonzero" fill="#ffffff" stroke="none" />
    <path d="M 884 339.5  C 888.2 339.5  891.5 342.8  891.5 347  C 891.5 351.2  888.2 354.5  884 354.5  C 879.8 354.5  876.5 351.2  876.5 347  C 876.5 342.8  879.8 339.5  884 339.5  Z " stroke-width="1" stroke="#8400ff" fill="none" />
  </g>
</svg>