<?xml version="1.0" encoding="utf-8"?>
<svg version="1.1" xmlns:xlink="http://www.w3.org/1999/xlink" width="76px" height="75px" xmlns="http://www.w3.org/2000/svg">
  <defs>
    <mask fill="white" id="clip13">
      <path d="M 405 86  C 402.225 86  400 83.775  400 81  L 400 16  C 400 13.225  402.225 11  405 11  L 471 11  C 473.775 11  476 13.225  476 16  L 476 81  C 476 83.775  473.775 86  471 86  " fill-rule="evenodd" />
    </mask>
  </defs>
  <g transform="matrix(1 0 0 1 -400 -11 )">
    <path d="M 400 11  L 476 11  L 476 86  L 400 86  L 400 11  " fill-rule="nonzero" fill="#cccccc" stroke="none" mask="url(#clip13)" />
    <path d="M 405 16  L 471 16  L 471 81  L 405 81  L 405 16  " fill-rule="nonzero" fill="#ffffff" stroke="none" mask="url(#clip13)" />
    <path d="M 445.145 33.5  C 441.995 33.5  439.52 31.025  439.52 27.875  C 439.52 24.725  441.995 22.25  445.145 22.25  C 448.295 22.25  450.77 24.725  450.77 27.875  C 450.77 31.025  448.295 33.5  445.145 33.5  " fill-rule="nonzero" fill="#cccccc" stroke="none" mask="url(#clip13)" />
    <path d="M 407 79  L 407 45.45  L 422.5 30.2  L 444.2 42.8815789473684  L 456.6 39.35  L 469 42.8815789473684  L 469 79  L 407 79  " fill-rule="nonzero" fill="#169bd5" stroke="none" mask="url(#clip13)" />
  </g>
</svg>