<?xml version="1.0" encoding="utf-8"?>
<svg version="1.1" xmlns:xlink="http://www.w3.org/1999/xlink" width="146px" height="102px" xmlns="http://www.w3.org/2000/svg">
  <g transform="matrix(1 0 0 1 -680 -187 )">
    <path d="M 680 187  L 826 187  L 826 289  L 680 289  L 680 187  " fill-rule="nonzero" fill="#cccccc" stroke="none" />
    <path d="M 687 194  L 819 194  L 819 282  L 687 282  L 687 194  " fill-rule="nonzero" fill="#ffffff" stroke="none" />
    <path d="M 763.57 217.6  C 759.286 217.6  755.92 214.234  755.92 209.95  C 755.92 205.666  759.286 202.3  763.57 202.3  C 767.854 202.3  771.22 205.666  771.22 209.95  C 771.22 214.234  767.854 217.6  763.57 217.6  " fill-rule="nonzero" fill="#cccccc" stroke="none" />
    <path d="M 690 280  L 690 234.35  L 721.75 213.6  L 766.2 245.208219178082  L 791.6 226.05  L 817 245.208219178082  L 817 280  L 690 280  " fill-rule="nonzero" fill="#169bd5" stroke="none" />
  </g>
</svg>