<?xml version="1.0" encoding="utf-8"?>
<svg version="1.1" xmlns:xlink="http://www.w3.org/1999/xlink" width="134px" height="117px" xmlns="http://www.w3.org/2000/svg">
  <g transform="matrix(1 0 0 1 -472 -805 )">
    <path d="M 473 810  A 4 4 0 0 1 477 806 L 601 806  A 4 4 0 0 1 605 810 L 605 917  A 4 4 0 0 1 601 921 L 477 921  A 4 4 0 0 1 473 917 L 473 810  Z " fill-rule="nonzero" fill="#ffffff" stroke="none" />
    <path d="M 472.5 810  A 4.5 4.5 0 0 1 477 805.5 L 601 805.5  A 4.5 4.5 0 0 1 605.5 810 L 605.5 917  A 4.5 4.5 0 0 1 601 921.5 L 477 921.5  A 4.5 4.5 0 0 1 472.5 917 L 472.5 810  Z " stroke-width="1" stroke-dasharray="9,4" stroke="#797979" fill="none" stroke-dashoffset="0.5" />
  </g>
</svg>