<?xml version="1.0" encoding="utf-8"?>
<svg version="1.1" xmlns:xlink="http://www.w3.org/1999/xlink" width="50px" height="52px" xmlns="http://www.w3.org/2000/svg">
  <g transform="matrix(1 0 0 1 -300 -1129 )">
    <path d="M 325 1129  C 339 1129  350 1140.44  350 1155  C 350 1169.56  339 1181  325 1181  C 311 1181  300 1169.56  300 1155  C 300 1140.44  311 1129  325 1129  Z " fill-rule="nonzero" fill="#ffffff" stroke="none" />
    <path d="M 325 1129.5  C 338.72 1129.5  349.5 1140.72  349.5 1155  C 349.5 1169.28  338.72 1180.5  325 1180.5  C 311.28 1180.5  300.5 1169.28  300.5 1155  C 300.5 1140.72  311.28 1129.5  325 1129.5  Z " stroke-width="1" stroke="#797979" fill="none" />
  </g>
</svg>