<?xml version="1.0" encoding="utf-8"?>
<svg version="1.1" xmlns:xlink="http://www.w3.org/1999/xlink" width="15px" height="15px" xmlns="http://www.w3.org/2000/svg">
  <g transform="matrix(1 0 0 1 -183 -394 )">
    <path d="M 190.5 394  C 194.7 394  198 397.3  198 401.5  C 198 405.7  194.7 409  190.5 409  C 186.3 409  183 405.7  183 401.5  C 183 397.3  186.3 394  190.5 394  Z " fill-rule="nonzero" fill="#ff0000" stroke="none" />
    <path d="M 190.5 394.5  C 194.42 394.5  197.5 397.58  197.5 401.5  C 197.5 405.42  194.42 408.5  190.5 408.5  C 186.58 408.5  183.5 405.42  183.5 401.5  C 183.5 397.58  186.58 394.5  190.5 394.5  Z " stroke-width="1" stroke="#797979" fill="none" />
  </g>
</svg>