<?xml version="1.0" encoding="utf-8"?>
<svg version="1.1" xmlns:xlink="http://www.w3.org/1999/xlink" width="15px" height="15px" xmlns="http://www.w3.org/2000/svg">
  <g transform="matrix(1 0 0 1 -206 -394 )">
    <path d="M 213.5 394  C 217.7 394  221 397.3  221 401.5  C 221 405.7  217.7 409  213.5 409  C 209.3 409  206 405.7  206 401.5  C 206 397.3  209.3 394  213.5 394  Z " fill-rule="nonzero" fill="#ffffff" stroke="none" />
    <path d="M 213.5 394.5  C 217.42 394.5  220.5 397.58  220.5 401.5  C 220.5 405.42  217.42 408.5  213.5 408.5  C 209.58 408.5  206.5 405.42  206.5 401.5  C 206.5 397.58  209.58 394.5  213.5 394.5  Z " stroke-width="1" stroke="#797979" fill="none" />
  </g>
</svg>